{"title":"La cittadella (1964) [Divx Ita Mp3] [TNTvillage]","uid":6631817,"size":5068340352,"categoryP":"video","categoryS":"movies","magnet":"?xt=urn:btih:cb417253d9df7ef47dff840d66bb59330ab13035&amp;dn=La+cittadella+%281964%29+%5BDivx+Ita+Mp3%5D+%5BTNTvillage%5D&amp;tr=udp%3A%2F%2Ftracker.openbittorrent.com%3A80&amp;tr=udp%3A%2F%2Fopen.demonii.com%3A1337&amp;tr=udp%3A%2F%2Ftracker.coppersurfer.tk%3A6969&amp;tr=udp%3A%2F%2Fexodus.desync.com%3A6969","seeders":0,"leechers":3,"uploader":"darayava","files":7,"time":1314396658,"description":"La cittadella (1964) [Divx Ita Mp3] [TNTvillage]\n\nLA CITTADELLA\n\nPaese: Italia\nAnno: 1964\nFormato: miniserie TV\nGenere: sceneggiato televisivo tratto dal romanzo La cittadella\nPuntate: 7\nDurata: 500 min ca. (totale)\nLingua originale: italiano\nColore: bianco e nero\nAudio: mono\n\nRegia: Anton Giulio Majano\nSoggetto: Archibald Joseph Cronin\nSceneggiatura: Anton Giulio Majano\nMusiche: Ritz Ortolani\nProduttore: RAI Radiotelevisione Italiana\n\nInterpreti e personaggi:\nAlberto Lupo - Andrew Manson\nAnna Maria Guarnieri - Cristina Barlow\nCarlo Hintermann - Denny\nLaura Efrikian - Mary Boland\nEleonora Rossi Drago - Francis Lawrence\nLoretta Goggi - Florrie\nNando Gazzolo - Freddie Hamson\nLida Ferro - Blodwen Page\nFerruccio De Ceresa - Stillman\n\nPrima TV Italia:\ndal 9 febbraio 1964\nal 22 marzo 1964\nRete televisiva: Rai Programma Nazionale\n\n\nLa fiction racconta le commoventi avventure di un medico di provincia,\nil dottor Andrew Manson, interpretato da Alberto Lupo,\nimpegnato a lavorare in un piccolo villaggio minerario del Galles.\n\n\nLa cittadella ÃƒÂ¨ uno sceneggiato televisivo tratto dall'omonimo romanzo\nLa cittadella (The Citadel) di Archibald Joseph Cronin.\nFu prodotto dalla RAI nel 1964 riscosse uno straordinario successo di pubblico.\n\nGeneral\nComplete name                    : [DivX.-.ITA].-.La.cittadella.-.[1964].-.[1.di.7].-.[A..Lupo.-.Guarnieri].avi\nFormat                           : AVI\nFormat/Info                      : Audio Video Interleave\nFile size                        : 692 MiB\nDuration                         : 1h 31mn\nOverall bit rate                 : 1 060 Kbps\n\nVideo\nID                               : 0\nFormat                           : MPEG-4 Visual\nFormat settings, BVOP            : No\nFormat settings, QPel            : No\nFormat settings, GMC             : No warppoints\nFormat settings, Matrix          : Default (H.263)\nCodec ID                         : DX50\nCodec ID/Hint                    : DivX 5\nDuration                         : 1h 31mn\nBit rate                         : 918 Kbps\nWidth                            : 720 pixels\nHeight                           : 416 pixels\nDisplay aspect ratio             : 16:9\nFrame rate                       : 25.000 fps\nResolution                       : 8 bits\nColorimetry                      : 4:2:0\nScan type                        : Progressive\nBits/(Pixel*Frame)               : 0.123\nStream size                      : 600 MiB (87%)\nTitle                            : NeoVideo92CF\nWriting library                  : DivX 5.0.3 (UTC 2003-01-24)\n\nAudio\nID                               : 1\nFormat                           : MPEG Audio\nFormat version                   : Version 1\nFormat profile                   : Layer 3\nFormat_Settings_Mode             : Joint stereo / MS Stereo\nCodec ID                         : 55\nCodec ID/Hint                    : MP3\nDuration                         : 1h 31mn\nBit rate mode                    : Constant\nBit rate                         : 128 Kbps\nChannel(s)                       : 2 channels\nSampling rate                    : 48.0 KHz\nStream size                      : 83.6 MiB (12%)\nAlignment                        : Split accross interleaves\nInterleave, duration             : 24 ms (0.60 video frame)\nTitle                            : NeoSound92CF0\n\nVisit http://www.tntvillage.scambioetico.org/","torrent":{"xt":"urn:btih:cb417253d9df7ef47dff840d66bb59330ab13035","amp;dn":"La+cittadella+%281964%29+%5BDivx+Ita+Mp3%5D+%5BTNTvillage%5D","amp;tr":["udp%3A%2F%2Ftracker.openbittorrent.com%3A80","udp%3A%2F%2Fopen.demonii.com%3A1337","udp%3A%2F%2Ftracker.coppersurfer.tk%3A6969","udp%3A%2F%2Fexodus.desync.com%3A6969"],"infoHash":"cb417253d9df7ef47dff840d66bb59330ab13035","infoHashBuffer":{"type":"Buffer","data":[203,65,114,83,217,223,126,244,125,255,132,13,102,187,89,51,10,177,48,53]},"announce":[],"urlList":[]}}